<?xml version="1.0" standalone="no"?>
<!DOCTYPE svg PUBLIC "-//W3C//DTD SVG 1.1//EN" "http://www.w3.org/Graphics/SVG/1.1/DTD/svg11.dtd" >
<svg xmlns="http://www.w3.org/2000/svg" xmlns:xlink="http://www.w3.org/1999/xlink" version="1.1">
<metadata></metadata>
<defs>
<font id="dinschriftregular" horiz-adv-x="835" >
<font-face units-per-em="2048" ascent="1638" descent="-410" />
<missing-glyph horiz-adv-x="491" />
<glyph horiz-adv-x="0" />
<glyph unicode="&#xd;" horiz-adv-x="491" />
<glyph unicode=" "  horiz-adv-x="491" />
<glyph unicode="&#x09;" horiz-adv-x="491" />
<glyph unicode="&#xa0;" horiz-adv-x="491" />
<glyph unicode="!" horiz-adv-x="491" d="M123 111q0 51 36 86.5t87 35.5t87 -35.5t36 -86.5t-36 -87t-87 -36t-87 36t-36 87zM131 1507h229l-38 -1118h-152z" />
<glyph unicode="&#x22;" horiz-adv-x="720" d="M145 1090v417h152v-417h-152zM424 1090v417h151v-417h-151z" />
<glyph unicode="#" d="M0 442v129h174l35 297h-160v129h174l51 443h127l-51 -443h197l51 443h127l-49 -443h160v-129h-174l-35 -297h159v-129h-174l-51 -442h-127l51 442h-196l-51 -442h-127l49 442h-160zM303 571h197l32 297h-196z" />
<glyph unicode="$" d="M6 299l191 45q18 -96 55 -144t119 -57v498q-84 49 -148.5 99.5t-107.5 105.5t-64.5 117.5t-21.5 138.5q0 78 24.5 144.5t68.5 113.5t107.5 74.5t141.5 29.5v117h96v-117q152 -4 236.5 -71.5t117.5 -214.5l-180 -64q-16 104 -59 141t-115 41v-465q80 -49 146.5 -99 t114.5 -106.5t74.5 -123t26.5 -148.5q0 -76 -25.5 -143.5t-73.5 -119.5t-114.5 -83t-148.5 -33v-143h-96v143q-150 4 -247 81t-118 243zM217 1128q0 -61 33 -118.5t121 -122.5v409q-82 -10 -118 -54t-36 -114zM467 143q78 16 126 66.5t48 128.5q0 72 -42 125t-132 123v-443z " />
<glyph unicode="%" horiz-adv-x="1593" d="M168 1133q0 70 14.5 130t45 105t78.5 70.5t118 25.5t118 -25.5t78.5 -70.5t45 -105.5t14.5 -129.5q0 -70 -14.5 -130.5t-45 -105.5t-78.5 -70.5t-118 -25.5t-118 25.5t-78.5 70.5t-45 105.5t-14.5 130.5zM291 -41l883 1522h131l-883 -1522h-131zM336 1133 q0 -98 19.5 -145.5t68.5 -47.5t68.5 47t19.5 146q0 98 -19.5 145t-68.5 47t-68.5 -47t-19.5 -145zM913 307q0 70 14.5 130.5t45.5 105.5t78.5 70.5t117.5 25.5t118 -25.5t79 -70.5t45 -105.5t14 -130.5t-14 -130t-45 -105t-79 -71t-118 -26t-117.5 26t-78.5 71t-45.5 105.5 t-14.5 129.5zM1081 307q0 -98 19.5 -145t68.5 -47t68.5 47t19.5 145t-19.5 145.5t-68.5 47.5t-68.5 -47t-19.5 -146z" />
<glyph unicode="&#x26;" horiz-adv-x="1062" d="M82 350q0 117 71.5 225.5t215.5 217.5q-29 55 -48.5 100t-30.5 84t-16.5 73.5t-5.5 69.5q0 121 75 198t196 77q51 0 100 -17.5t88 -52.5t62.5 -86t23.5 -119q0 -102 -50 -194t-161 -176l186 -365l99 141l143 -116l-149 -201l108 -209h-209l-43 94q-51 -53 -126.5 -82.5 t-168.5 -29.5q-90 0 -156.5 29.5t-112.5 80.5t-68.5 117.5t-22.5 140.5zM281 365q0 -41 14 -79t38.5 -65.5t58.5 -44t75 -16.5q53 0 98 21.5t78 58.5l-188 389q-90 -59 -132 -126t-42 -138zM457 1108q0 -33 18.5 -91.5t52.5 -109.5q53 57 75 107.5t22 93.5q0 53 -25 81 t-59 28q-35 0 -59.5 -28t-24.5 -81z" />
<glyph unicode="'" horiz-adv-x="491" d="M170 1090v417h152v-417h-152z" />
<glyph unicode="(" horiz-adv-x="606" d="M150 623q0 250 54 497.5t177 474.5l176 -88q-106 -205 -157.5 -427t-51.5 -457q0 -236 51.5 -458t157.5 -427l-176 -88q-123 227 -177 475t-54 498z" />
<glyph unicode=")" horiz-adv-x="606" d="M49 -262q106 205 157.5 427t51.5 458t-51 458t-158 426l176 88q123 -227 177.5 -475t54.5 -497q0 -250 -54.5 -498t-177.5 -475z" />
<glyph unicode="*" horiz-adv-x="720" d="M72 1255l34 111l205 -76l-8 217h115l-8 -217l204 76l35 -111l-209 -59l133 -170l-92 -68l-121 181l-120 -181l-93 68l134 170z" />
<glyph unicode="+" horiz-adv-x="1228" d="M96 442v152h443v442h151v-442h443v-152h-443v-442h-151v442h-443z" />
<glyph unicode="," horiz-adv-x="491" d="M29 -176l129 436h219l-180 -436h-168z" />
<glyph unicode="-" horiz-adv-x="606" d="M104 492v178h398v-178h-398z" />
<glyph unicode="." horiz-adv-x="491" d="M123 111q0 51 36 86.5t87 35.5t87 -35.5t36 -86.5t-36 -87t-87 -36t-87 36t-36 87z" />
<glyph unicode="/" horiz-adv-x="606" d="M33 -31l389 1569h151l-389 -1569h-151z" />
<glyph unicode="0" d="M74 743q0 137 8 267.5t43 230.5t103.5 161.5t189.5 61.5t189.5 -61.5t103 -161.5t43 -230t8.5 -268q0 -170 -11.5 -311t-48 -242.5t-104 -158t-180.5 -56.5t-180.5 56.5t-104.5 158t-48 242.5t-11 311zM283 743q0 -158 5 -267t20.5 -179t42 -101.5t67.5 -31.5 q45 0 71.5 27.5t41 94t18.5 178t4 279.5q0 154 -5 256.5t-19.5 164t-41 87t-69.5 25.5t-69.5 -25.5t-41 -87t-19.5 -164t-5 -256.5z" />
<glyph unicode="1" horiz-adv-x="606" d="M41 1036v189q96 43 191.5 108.5t166.5 130.5h39v-1464h-209v1153q-14 -14 -37.5 -31.5t-51 -34t-54.5 -31t-45 -20.5z" />
<glyph unicode="2" d="M57 0l344 668q27 53 54.5 110.5t51 113.5t38 111.5t14.5 102.5q0 66 -32.5 118t-96.5 52q-78 0 -107.5 -67.5t-35.5 -188.5h-209q0 90 17.5 171t59.5 141.5t111.5 96t171.5 35.5q86 0 149.5 -30.5t105.5 -79.5t63.5 -111.5t21.5 -126.5q0 -66 -19.5 -137.5t-51 -145 t-70.5 -147.5t-76 -141l-194 -357h393v-188h-703z" />
<glyph unicode="3" d="M74 395h209q0 -104 27.5 -167.5t105.5 -63.5q39 0 65.5 22.5t43 62.5t22.5 93t6 115q0 125 -38 204.5t-124 79.5q-76 0 -125 -69l-123 94l303 485h-342v189h652v-25l-332 -528q18 4 35.5 5t36.5 1q141 0 203.5 -123t62.5 -340q0 -98 -24.5 -181t-72 -144.5t-114 -95.5 t-152.5 -34q-168 0 -246.5 114t-78.5 306z" />
<glyph unicode="4" d="M25 272v144l428 1024h188v-989h154v-179h-154v-272h-199v272h-417zM190 451h252v616h-4z" />
<glyph unicode="5" d="M74 367v49h198q0 -47 6.5 -93.5t21.5 -84t40 -61t63 -23.5q45 0 74 26.5t45.5 74.5t23.5 112.5t7 142.5q0 166 -39 236.5t-104 70.5q-41 0 -81 -32.5t-44 -120.5h-179l9 776h600v-189h-412l-8 -356l4 -4q66 104 197 104q45 0 92 -23.5t86 -77.5t63.5 -144.5t24.5 -221.5 q0 -86 -10.5 -183t-46 -179t-104.5 -136.5t-183 -54.5q-102 0 -169 36t-106 92.5t-54 126t-15 137.5z" />
<glyph unicode="6" d="M61 469q0 100 17.5 197.5t60.5 210t114 249t177 314.5h246q-74 -104 -150.5 -239.5t-146.5 -268.5h4q49 27 111 26q47 0 95 -22.5t86 -79.5t62.5 -152.5t24.5 -240.5q0 -84 -17.5 -171t-59.5 -158t-108.5 -115t-164.5 -44q-90 0 -157 36t-110 100.5t-63.5 155.5 t-20.5 202zM270 473q0 -49 6.5 -105.5t23.5 -103.5t46 -78.5t72 -31.5q70 0 102.5 81.5t32.5 237.5q0 152 -30.5 229.5t-100.5 77.5q-43 0 -71.5 -25.5t-47 -68.5t-26 -98.5t-7.5 -114.5z" />
<glyph unicode="7" d="M94 1251v189h690l-471 -1440h-209l412 1251h-422z" />
<glyph unicode="8" d="M74 403q0 143 41 236.5t145 140.5q-98 47 -129 121t-31 182q0 82 20.5 152t60.5 121t99.5 79.5t137.5 28.5t137 -28.5t99 -79.5t60.5 -121t20.5 -152q0 -109 -30.5 -182.5t-129.5 -120.5q104 -47 145.5 -140t41.5 -237q0 -78 -17.5 -153.5t-57.5 -137t-105.5 -99.5 t-163.5 -38t-164 38t-105.5 99.5t-57 137t-17.5 153.5zM283 424q0 -51 6 -98t21.5 -83t41 -57.5t66.5 -21.5q39 0 65.5 21.5t42 57.5t21.5 83t6 98q0 111 -28.5 182.5t-106.5 71.5t-106.5 -71.5t-28.5 -182.5zM299 1077q0 -92 25.5 -156.5t93.5 -64.5t93.5 64.5t25.5 156.5 t-28 150.5t-91 58.5t-91 -58.5t-28 -150.5z" />
<glyph unicode="9" d="M74 977q0 84 17.5 171t59.5 157.5t108.5 114.5t164.5 44q90 0 156.5 -35.5t109.5 -100t63.5 -156t20.5 -201.5q0 -100 -17.5 -197.5t-60.5 -210t-113.5 -249t-176.5 -314.5h-246q74 104 150.5 239.5t146.5 268.5h-4q-49 -27 -111 -27q-47 0 -95 22.5t-86 80t-62.5 152.5 t-24.5 241zM283 967q0 -152 30.5 -230t100.5 -78q43 0 71.5 26t47 69t25.5 98t7 115q0 49 -6 105t-23.5 103.5t-46 79t-71.5 31.5q-70 0 -102.5 -82t-32.5 -237z" />
<glyph unicode=":" horiz-adv-x="491" d="M123 111q0 51 36 86.5t87 35.5t87 -35.5t36 -86.5t-36 -87t-87 -36t-87 36t-36 87zM123 967q0 51 36 87t87 36t87 -36t36 -87t-36 -87t-87 -36t-87 36t-36 87z" />
<glyph unicode=";" horiz-adv-x="491" d="M29 -176l129 436h219l-180 -436h-168zM123 967q0 51 36 87t87 36t87 -36t36 -87t-36 -87t-87 -36t-87 36t-36 87z" />
<glyph unicode="&#x3c;" horiz-adv-x="1228" d="M96 449v139l1037 465v-152l-848 -383l848 -383v-151z" />
<glyph unicode="=" horiz-adv-x="1228" d="M96 233v152h1037v-152h-1037zM96 651v152h1037v-152h-1037z" />
<glyph unicode="&#x3e;" horiz-adv-x="1228" d="M96 -16v151l848 383l-848 383v152l1037 -465v-139z" />
<glyph unicode="?" horiz-adv-x="720" d="M41 1102v33q0 88 19.5 161.5t60.5 128t104.5 84t149.5 29.5q61 0 116.5 -19.5t97.5 -61.5t66.5 -108.5t24.5 -160.5q0 -47 -5 -85t-15.5 -74t-30 -71.5t-45.5 -76.5l-90 -136q-25 -37 -40.5 -72.5t-24.5 -77.5t-12 -91t-5 -115h-179q2 94 7.5 155.5t14.5 104.5t22.5 75 t35.5 67l86 139q23 37 37.5 66.5t21.5 58t10 61.5t3 76q0 88 -23.5 128t-82.5 40q-37 0 -59.5 -20.5t-35 -56.5t-16.5 -83t-4 -98h-209zM201 111q0 51 35.5 86.5t87.5 35.5q51 0 86.5 -35.5t35.5 -86.5t-35.5 -87t-86.5 -36t-87 36t-36 87z" />
<glyph unicode="@" horiz-adv-x="1638" d="M35 754q0 162 64.5 305t175 249.5t260 168t319.5 61.5q152 0 288 -47t238.5 -133t163 -205t60.5 -262q0 -141 -54.5 -253t-134.5 -189.5t-170 -118.5t-164 -41q-53 0 -93 31.5t-48 97.5h-4q-45 -51 -113.5 -90t-142.5 -39q-70 0 -128 26.5t-101 71.5t-67 106.5t-24 129.5 q0 104 36 207.5t102.5 185.5t159 132t204.5 50q78 0 142.5 -37t107.5 -125l41 127h152l-179 -581q-8 -29 -13 -55.5t-5 -49.5t9 -36t32 -13q55 0 109.5 39t97.5 101.5t69.5 142.5t26.5 163q0 123 -48 222.5t-130 169t-191.5 106.5t-232.5 37q-143 0 -265 -52t-210 -141.5 t-138.5 -210t-50.5 -257.5q0 -141 53.5 -260t145.5 -205t215 -135.5t264 -49.5q158 0 299.5 62.5t233.5 173.5h151q-111 -172 -293 -268.5t-401 -96.5q-170 0 -319.5 61.5t-260 168t-175 249t-64.5 306.5zM528 639q0 -90 52.5 -144.5t134.5 -54.5q70 0 130 42t105 103.5 t69.5 134.5t24.5 134q0 39 -14 74t-39.5 61.5t-59.5 42t-71 15.5q-74 0 -134 -40t-104 -99.5t-69 -132.5t-25 -136z" />
<glyph unicode="A" horiz-adv-x="948" d="M41 0l317 1507h209l340 -1507h-219l-59 311h-330l-59 -311h-199zM332 479h266l-131 688h-4z" />
<glyph unicode="B" horiz-adv-x="948" d="M115 0v1507h293q127 0 208.5 -36.5t129 -92t65.5 -122t18 -126.5q0 -125 -47 -200.5t-155 -122.5q129 -41 182 -140.5t53 -228.5q0 -53 -14 -127.5t-61.5 -143.5t-134.5 -118t-234 -49h-303zM324 178q164 0 241.5 59.5t77.5 206.5q0 276 -289 277h-30v-543zM324 889h32 q55 0 104.5 11t84.5 37t55.5 69t20.5 104q0 106 -58.5 162.5t-197.5 56.5h-41v-440z" />
<glyph unicode="C" horiz-adv-x="948" d="M76 764q0 74 5 160t20.5 172t43 165.5t75.5 141t117 98.5t165 37q135 0 226 -84t134 -260l-207 -70q-18 123 -60 174.5t-95 51.5q-61 0 -101.5 -49.5t-63 -129t-31.5 -184t-9 -215.5q0 -127 8 -238.5t30.5 -195.5t60.5 -132t100 -48q43 0 74.5 25.5t54 66.5t37 93 t20.5 108l201 -72q-12 -84 -40 -159t-75 -130t-115.5 -88t-161.5 -33q-104 0 -181 43t-129 138.5t-77.5 246t-25.5 367.5z" />
<glyph unicode="D" horiz-adv-x="948" d="M115 0v1507h241q150 0 247 -64.5t154.5 -172t81 -244.5t23.5 -285q0 -121 -21.5 -252t-76.5 -239.5t-150.5 -179t-240.5 -70.5h-258zM324 178q94 0 155.5 45t98 123t51 183.5t14.5 226.5q0 281 -81 427t-238 146v-1151z" />
<glyph unicode="E" horiz-adv-x="720" d="M115 0v1507h549v-178h-340v-440h340v-178h-340v-533h340v-178h-549z" />
<glyph unicode="F" horiz-adv-x="720" d="M115 0v1507h549v-178h-340v-440h340v-178h-340v-711h-209z" />
<glyph unicode="G" horiz-adv-x="948" d="M76 754q0 156 16.5 298t61.5 249.5t121.5 172t199.5 64.5q78 0 137.5 -24.5t102.5 -68.5t70.5 -105.5t45.5 -135.5l-202 -76q-14 104 -51 163t-103 59q-41 0 -73.5 -31t-56 -104.5t-37 -194.5t-13.5 -299q0 -115 7 -217.5t26.5 -179t54.5 -121.5t92 -45q53 0 87 37.5 t53.5 106.5t27.5 165t12 213h-213v188h422v-174q0 -135 -16.5 -266t-59.5 -232.5t-118.5 -164t-194.5 -62.5q-135 0 -215 67.5t-121 178.5t-52 252t-11 287z" />
<glyph unicode="H" horiz-adv-x="948" d="M115 0v1507h209v-618h301v618h209v-1507h-209v711h-301v-711h-209z" />
<glyph unicode="I" horiz-adv-x="491" d="M141 0v1507h209v-1507h-209z" />
<glyph unicode="J" horiz-adv-x="720" d="M35 104l141 144q20 -45 51 -73t66 -28q51 0 77.5 35t26.5 88v1237h209v-1216q0 -61 -15.5 -119.5t-51 -102.5t-92 -72t-138.5 -28q-96 0 -162.5 35t-111.5 100z" />
<glyph unicode="K" horiz-adv-x="948" d="M115 0v1507h209v-682h4l329 682h226l-361 -706l385 -801h-233l-346 752h-4v-752h-209z" />
<glyph unicode="L" horiz-adv-x="720" d="M141 0v1507h209v-1319h336v-188h-545z" />
<glyph unicode="M" horiz-adv-x="1290" d="M115 0v1507h225l303 -1005h4l303 1005h226v-1507h-199v1004h-4l-248 -857h-160l-248 857h-4v-1004h-198z" />
<glyph unicode="N" horiz-adv-x="948" d="M115 0v1507h209l307 -954h4v954h199v-1507h-209l-308 954h-4v-954h-198z" />
<glyph unicode="O" horiz-adv-x="948" d="M76 754q0 156 16.5 298t61.5 249.5t121.5 172t199.5 64.5q135 0 214 -67.5t120 -178t52 -252t11 -286.5q0 -156 -16 -298.5t-60 -250t-122 -172t-199 -64.5q-135 0 -215 67.5t-121 178.5t-52 252.5t-11 286.5zM295 721q0 -115 7 -217.5t26.5 -179t54.5 -121.5t92 -45 q55 0 90 46t54.5 131t26.5 202.5t7 263.5q0 172 -13 278.5t-37.5 167t-57.5 82t-70 21.5q-41 0 -73.5 -31t-56 -104.5t-37 -194.5t-13.5 -299z" />
<glyph unicode="P" horiz-adv-x="833" d="M115 0v1507h211q100 0 184 -25.5t142.5 -80.5t91 -144.5t32.5 -216.5q0 -104 -25.5 -191t-77.5 -148.5t-130 -96.5t-185 -35h-34v-569h-209zM324 748q68 0 112.5 23.5t71.5 63t38 94t11 115.5q0 131 -55.5 208t-177.5 77v-581z" />
<glyph unicode="Q" horiz-adv-x="948" d="M76 754q0 156 16.5 298t61.5 249.5t121.5 172t199.5 64.5q135 0 214 -67.5t120 -178t52 -252t11 -286.5q0 -201 -28.5 -375t-110.5 -283l92 -141l-157 -105l-76 140q-14 -4 -27.5 -8.5t-27.5 -8.5q-16 -2 -30.5 -3t-31.5 -1q-135 0 -215 67.5t-121 178.5t-52 252t-11 287 zM295 721q0 -115 7 -217.5t26.5 -179t54.5 -121.5t92 -45q14 0 23 2l-76 139l131 76l55 -84q27 84 36 214t9 296q0 172 -13 278.5t-37.5 167t-57.5 82t-70 21.5q-41 0 -73.5 -31t-56 -104.5t-37 -194.5t-13.5 -299z" />
<glyph unicode="R" horiz-adv-x="948" d="M127 0v1507h338q86 0 156.5 -29.5t123 -83t81 -130t28.5 -170.5q0 -57 -16.5 -116.5t-48 -110t-81 -89.5t-112.5 -57l305 -721h-239l-277 690h-49v-690h-209zM336 868q154 0 226.5 53.5t72.5 186.5q0 94 -58.5 157.5t-168.5 63.5h-72v-461z" />
<glyph unicode="S" horiz-adv-x="833" d="M53 330l199 63q10 -104 50 -175t118 -71q57 0 104 46.5t47 138.5q0 61 -31.5 132t-115.5 154l-164 162q-102 100 -144 194.5t-42 205.5q0 84 27.5 150.5t74.5 112.5t107.5 70.5t126.5 24.5q156 0 248 -88t96 -242l-189 -67q-4 43 -12 81t-26.5 66.5t-46 45t-66.5 16.5 q-61 0 -96 -47.5t-35 -110.5q0 -57 29.5 -122.5t111.5 -145.5l170 -166q53 -53 89 -101.5t57.5 -97.5t30.5 -101t9 -112q0 -78 -23.5 -146.5t-68.5 -119.5t-113.5 -81t-156.5 -30q-154 0 -250 92.5t-115 268.5z" />
<glyph unicode="T" d="M47 1319v188h741v-188h-266v-1319h-209v1319h-266z" />
<glyph unicode="U" horiz-adv-x="946" d="M115 373v1134h209v-1132q0 -35 5 -74t21.5 -70.5t46 -52t78.5 -20.5q47 0 76 20.5t45 52t21.5 70.5t5.5 74v1132h208v-1134q0 -117 -26.5 -194t-74.5 -124t-113.5 -66.5t-141.5 -19.5q-78 0 -144.5 19.5t-114.5 66.5t-74.5 124t-26.5 194z" />
<glyph unicode="V" horiz-adv-x="833" d="M41 1507h219l164 -1061h4l156 1061h209l-271 -1507h-198z" />
<glyph unicode="W" horiz-adv-x="1290" d="M35 1507h219l141 -1061h4l136 1061h219l137 -1061h4l152 1061h208l-258 -1507h-198l-152 1065h-4l-151 -1065h-199z" />
<glyph unicode="X" horiz-adv-x="833" d="M41 0l270 782l-248 725h220l127 -483h4l137 483h219l-250 -725l273 -782h-220l-159 547h-4l-150 -547h-219z" />
<glyph unicode="Y" horiz-adv-x="833" d="M41 1507h219l164 -628h4l156 628h209l-267 -899v-608h-209v608z" />
<glyph unicode="Z" horiz-adv-x="833" d="M41 0l473 1329h-426v178h705l-471 -1329h432v-178h-713z" />
<glyph unicode="[" horiz-adv-x="606" d="M190 -315v1876h328v-179h-129v-1519h129v-178h-328z" />
<glyph unicode="\" horiz-adv-x="606" d="M33 1538h151l389 -1569h-151z" />
<glyph unicode="]" horiz-adv-x="606" d="M88 -137h129v1519h-129v179h328v-1876h-328v178z" />
<glyph unicode="^" horiz-adv-x="1228" d="M113 571l430 869h139l434 -869h-151l-355 701l-346 -701h-151z" />
<glyph unicode="_" horiz-adv-x="1024" d="M0 -154h1024v-102h-1024v102z" />
<glyph unicode="`" horiz-adv-x="417" d="M-55 1507h235l150 -278h-152z" />
<glyph unicode="a" horiz-adv-x="796" d="M55 293q0 109 21.5 183.5t69 120.5t120 65.5t174.5 19.5h74v141q0 55 -27.5 92t-97.5 37q-59 0 -89 -33.5t-38 -105.5l-176 49q12 74 40 124t70 80t93 42t110 12q143 0 223 -67.5t80 -221.5v-831h-188v162h-4q-43 -98 -97.5 -139t-131.5 -41q-29 0 -68 11t-74 44 t-59.5 94.5t-24.5 161.5zM254 317q0 -74 20.5 -120.5t85.5 -46.5q23 0 49.5 13t50 43t39 74t15.5 105v145h-51q-72 0 -113 -18t-62.5 -48t-27.5 -69t-6 -78z" />
<glyph unicode="b" d="M109 0v1507h188v-577h4q35 102 84 146t127 44q49 0 94 -24.5t80 -88t55.5 -174t20.5 -280.5q0 -264 -63.5 -417.5t-192.5 -153.5q-82 0 -129 51t-76 147l-4 2v-182h-188zM297 551q0 -127 12.5 -204t30.5 -119t40.5 -55t45.5 -13q20 0 43 13t41 55t30.5 119t12.5 204 t-12.5 203.5t-30.5 118.5t-41 55.5t-43 13.5q-23 0 -45.5 -13.5t-40.5 -55.5t-30.5 -118.5t-12.5 -203.5z" />
<glyph unicode="c" horiz-adv-x="720" d="M74 532q0 307 76.5 447.5t244.5 140.5q72 0 122 -27.5t82 -70.5t47.5 -96.5t17.5 -104.5l-189 -41q-2 80 -21.5 121t-68.5 41q-25 0 -45.5 -13.5t-35.5 -55.5t-23.5 -118.5t-8.5 -205.5q0 -190 26 -289.5t89 -99.5q49 0 73.5 42t35.5 146l178 -61q-23 -152 -89.5 -228.5 t-197.5 -76.5q-160 0 -236.5 132t-76.5 418z" />
<glyph unicode="d" d="M74 553q0 170 20.5 280.5t55 174t79.5 88t95 24.5q78 0 127 -44t84 -146h4v577h188v-1507h-188v182l-4 -2q-29 -96 -76 -147t-129 -51q-129 0 -192.5 153.5t-63.5 417.5zM283 551q0 -127 12 -204t30.5 -119t41 -55t43.5 -13q20 0 43.5 13t42 55t31 119t12.5 204 t-12.5 203.5t-31 118.5t-42 55.5t-43.5 13.5t-43 -13.5t-41.5 -55.5t-30.5 -118.5t-12 -203.5z" />
<glyph unicode="e" horiz-adv-x="833" d="M86 580q0 283 90 411.5t250 128.5q147 0 234.5 -111.5t87.5 -320.5v-158h-463q0 -74 4 -142.5t18.5 -121.5t42 -84.5t76.5 -31.5q35 0 58.5 18t38 48t20.5 63.5t8 64.5h178q0 -70 -19.5 -135.5t-57.5 -115.5t-95 -80.5t-135 -30.5q-86 0 -149.5 31.5t-105.5 102 t-61.5 185.5t-19.5 279zM285 682h274q0 49 -7 97t-22.5 87t-43 62.5t-66.5 23.5q-41 0 -66.5 -23.5t-41 -62.5t-21.5 -87t-6 -97z" />
<glyph unicode="f" horiz-adv-x="493" d="M41 924v178h106v164q0 61 8.5 109t31 82t63.5 51.5t108 17.5q57 0 95 -6v-189q-12 6 -37 6q-29 0 -49.5 -19.5t-20.5 -66.5v-149h107v-178h-107v-924h-199v924h-106z" />
<glyph unicode="g" d="M74 553q0 170 20.5 280.5t55 174t79.5 88t95 24.5q88 0 137 -51t84 -147h4v180h178v-1170q0 -72 -21.5 -132t-63.5 -106t-104.5 -71.5t-146.5 -25.5q-111 0 -183.5 35.5t-123.5 113.5l160 111q23 -39 60.5 -66t86.5 -27q88 0 118 79t30 243v94h-4q-29 -96 -76 -147 t-129 -51q-129 0 -192.5 153.5t-63.5 417.5zM283 551q0 -127 12 -204t30.5 -119t41 -55t43.5 -13q20 0 43.5 13t42 55t31 119t12.5 204t-12.5 203.5t-31 118.5t-42 55.5t-43.5 13.5t-43 -13.5t-41.5 -55.5t-30.5 -118.5t-12 -203.5z" />
<glyph unicode="h" horiz-adv-x="833" d="M109 0v1507h198v-530h4q29 59 79 101t128 42q41 0 79 -18.5t66.5 -50t45 -76.5t16.5 -98v-877h-199v797q0 66 -27.5 100.5t-68.5 34.5q-59 0 -91 -48t-32 -108v-776h-198z" />
<glyph unicode="i" horiz-adv-x="415" d="M80 1356q0 53 37 90t90 37t91 -37t38 -90t-38 -91t-91 -38t-90 38t-37 91zM109 0v1102h198v-1102h-198z" />
<glyph unicode="j" horiz-adv-x="415" d="M-16 -188q20 -14 41 -15q43 0 63.5 37t20.5 105v1163h198v-1192q0 -84 -18.5 -141.5t-51 -93t-76.5 -51t-93 -15.5q-18 0 -42 4t-42 10v189zM80 1356q0 53 37 90t90 37t91 -37t38 -90t-38 -91t-91 -38t-90 38t-37 91z" />
<glyph unicode="k" horiz-adv-x="720" d="M109 0v1507h198v-858h4l172 453h199l-193 -465l195 -637h-199l-174 569h-4v-569h-198z" />
<glyph unicode="l" horiz-adv-x="454" d="M109 260v1247h198v-1204q0 -66 29 -99.5t100 -33.5h21v-188h-74q-61 0 -111.5 14t-87.5 47t-56 86t-19 131z" />
<glyph unicode="m" horiz-adv-x="1288" d="M109 0v1102h188v-166h4q35 86 88 135t131 49q80 0 124 -48t73 -134h4q10 31 28.5 62.5t46 58t67.5 44t95 17.5q104 0 163 -67.5t59 -171.5v-881h-199v772q0 63 -23.5 111.5t-83.5 48.5q-70 0 -100.5 -57.5t-30.5 -139.5v-735h-198v772q0 63 -23.5 111.5t-83.5 48.5 q-70 0 -100.5 -57.5t-30.5 -139.5v-735h-198z" />
<glyph unicode="n" horiz-adv-x="833" d="M109 0v1102h188v-150h4q37 92 91 130t128 38q41 0 78 -18.5t65.5 -50t45 -76.5t16.5 -98v-877h-199v797q0 66 -27.5 100.5t-68.5 34.5q-59 0 -91 -48t-32 -108v-776h-198z" />
<glyph unicode="o" d="M74 551q0 119 17.5 222.5t57 180t105 121.5t164.5 45q98 0 163.5 -45t105.5 -121.5t57.5 -180t17.5 -222.5t-17.5 -222.5t-57.5 -180t-105.5 -121.5t-163.5 -45t-164 45t-105.5 121.5t-57 180t-17.5 222.5zM283 604q0 -454 135 -454t135 454q0 76 -6 139.5t-21.5 109.5 t-42 72.5t-65.5 26.5t-65.5 -26.5t-42 -72.5t-21.5 -109.5t-6 -139.5z" />
<glyph unicode="p" d="M109 -391v1493h178v-180h4q35 96 84 147t137 51q49 0 94 -24.5t80 -88t55.5 -174t20.5 -280.5q0 -264 -63.5 -417.5t-192.5 -153.5q-82 0 -129 51t-76 147l-4 2v-573h-188zM297 551q0 -127 12.5 -204t30.5 -119t40.5 -55t45.5 -13q20 0 43 13t41 55t30.5 119t12.5 204 t-12.5 203.5t-30.5 118.5t-41 55.5t-43 13.5q-23 0 -45.5 -13.5t-40.5 -55.5t-30.5 -118.5t-12.5 -203.5z" />
<glyph unicode="q" d="M74 553q0 170 20.5 280.5t55 174t79.5 88t95 24.5q88 0 137 -51t84 -147h4v180h178v-1493h-188v573l-4 -2q-29 -96 -76 -147t-129 -51q-129 0 -192.5 153.5t-63.5 417.5zM283 551q0 -127 12 -204t30.5 -119t41 -55t43.5 -13q20 0 43.5 13t42 55t31 119t12.5 204 t-12.5 203.5t-31 118.5t-42 55.5t-43.5 13.5t-43 -13.5t-41.5 -55.5t-30.5 -118.5t-12 -203.5z" />
<glyph unicode="r" horiz-adv-x="606" d="M109 0v1102h188v-201h4q8 37 24.5 75t45 68.5t70.5 51t98 24.5h2v-229q-27 10 -60 10q-29 0 -59.5 -11t-56 -41t-42 -80t-16.5 -126v-643h-198z" />
<glyph unicode="s" horiz-adv-x="720" d="M51 195l172 108q2 -59 37 -106t98 -47q55 0 84 34.5t29 75.5t-25.5 85t-97.5 99l-104 82q-102 80 -141.5 147.5t-39.5 155.5q0 68 23 122.5t61.5 91t93 57t115.5 20.5q127 0 197 -62.5t104 -152.5l-170 -102q-4 59 -35.5 104t-97.5 45q-47 0 -74.5 -27.5t-27.5 -72.5 q0 -35 22.5 -71t100.5 -93l125 -96q98 -76 134 -151.5t36 -157.5q0 -61 -20.5 -115.5t-60.5 -95.5t-99.5 -65.5t-135.5 -24.5q-111 0 -183.5 49t-119.5 164z" />
<glyph unicode="t" horiz-adv-x="493" d="M41 924v178h106v274h199v-274h107v-178h-107v-650q0 -86 82 -86h25v-178q-25 -4 -48.5 -7t-46.5 -3q-96 0 -153.5 47t-57.5 152v725h-106z" />
<glyph unicode="u" horiz-adv-x="833" d="M109 225v877h198v-797q0 -66 27.5 -100.5t68.5 -34.5q59 0 91 48t32 108v776h199v-1102h-188v150h-5q-37 -92 -91 -130t-128 -38q-41 0 -77.5 17t-65.5 50t-45 78t-16 98z" />
<glyph unicode="v" horiz-adv-x="720" d="M41 1102h209l117 -721h4l110 721h199l-225 -1102h-189z" />
<glyph unicode="w" horiz-adv-x="1062" d="M41 1102h199l96 -721h4l92 721h199l100 -721h4l88 721h199l-193 -1102h-188l-109 836h-4l-106 -836h-189z" />
<glyph unicode="x" horiz-adv-x="720" d="M47 0l219 575l-215 527h209l105 -354h4l100 354h188l-202 -524l219 -578h-199l-119 401h-4l-106 -401h-199z" />
<glyph unicode="y" horiz-adv-x="720" d="M41 1102h199l133 -723h4l104 723h199l-307 -1493h-199l98 442z" />
<glyph unicode="z" horiz-adv-x="720" d="M53 924v178h611v-25l-347 -889h351v-188h-611v25l351 899h-355z" />
<glyph unicode="{" horiz-adv-x="606" d="M82 553v139q25 0 49.5 17.5t43 50.5t30.5 77t12 99v346q0 70 20.5 122t56.5 87t82 52.5t97 17.5h92v-129h-45q-55 0 -79.5 -44.5t-24.5 -111.5v-330q2 -88 -21.5 -148.5t-58.5 -97t-73 -54t-64 -21.5v-4q27 -4 64.5 -21.5t72.5 -54.5t58.5 -97.5t21.5 -148.5v-330 q0 -35 3 -62.5t13 -49t31.5 -32.5t56.5 -11h45v-129h-92q-117 0 -186.5 69.5t-69.5 208.5v346q0 55 -12 99.5t-30.5 77t-43.5 50t-49 17.5z" />
<glyph unicode="|" horiz-adv-x="454" d="M152 -31v1569h151v-1569h-151z" />
<glyph unicode="}" horiz-adv-x="606" d="M41 -186h45q55 0 79.5 44t24.5 111v330q-2 88 22 148.5t58.5 97.5t72.5 54t65 22v4q-27 4 -65 21.5t-72.5 54t-58.5 97t-22 148.5v330q0 68 -17 112t-87 44h-45v129h92q117 0 186.5 -70t69.5 -209v-346q0 -55 12.5 -99t31 -77t43 -50.5t48.5 -17.5v-139q-25 0 -49 -17.5 t-42.5 -50t-31 -76.5t-12.5 -100v-346q0 -70 -21.5 -122t-56.5 -87t-81 -52t-97 -17h-92v129z" />
<glyph unicode="~" horiz-adv-x="1228" d="M141 492q49 92 113.5 132t142.5 40q41 0 102.5 -15.5t123.5 -46.5q90 -45 136 -61.5t75 -16.5q53 0 95 43t85 109l73 -131q-55 -86 -114.5 -129t-141.5 -43q-49 0 -98 14t-119 53q-61 35 -115.5 53.5t-105.5 18.5q-61 0 -103 -38t-75 -114z" />
<glyph unicode="&#xa1;" horiz-adv-x="491" d="M123 1024q0 51 36 87t87 36t87 -36t36 -87t-36 -87t-87 -36t-87 36t-36 87zM131 -373l39 1118h152l38 -1118h-229z" />
<glyph unicode="&#xa2;" d="M129 532q0 279 62.5 419.5t199.5 168.5v144h107v-144q57 -10 99 -39.5t68.5 -71.5t39 -91.5t14.5 -96.5l-189 -41q-2 80 -21.5 121t-68.5 41q-25 0 -45 -13.5t-35.5 -55.5t-23.5 -118.5t-8 -205.5q0 -190 25.5 -289.5t88.5 -99.5q49 0 74 42t35 146l178 -61 q-18 -135 -72.5 -211t-158.5 -94v-158h-107v158q-133 25 -197.5 157.5t-64.5 392.5z" />
<glyph unicode="&#xa3;" d="M8 0q2 66 11.5 111t32 80.5t61.5 67.5t100 69q72 43 92.5 94t20.5 100q0 35 -10.5 79t-28.5 87h-236v107h187q-61 94 -85 181t-24 154q0 80 27.5 142.5t77 104.5t116 64.5t144.5 22.5q84 0 146 -27.5t104 -76.5t62.5 -117.5t20.5 -148.5v-45v-5h-209q0 49 -7 93.5 t-24.5 77t-45 52t-70.5 19.5q-68 0 -100.5 -46t-32.5 -105q0 -53 25.5 -132t103.5 -208h283v-107h-236q20 -57 21 -119q0 -96 -48.5 -159.5t-150.5 -122.5l-2 -8q51 0 92 -18.5t77 -40t70.5 -39t73.5 -17.5q88 0 180 94v-215q-49 -29 -103 -48.5t-108 -19.5q-68 0 -115.5 24 t-85.5 52.5t-72 52t-75 23.5q-53 0 -72.5 -35t-19.5 -92h-168z" />
<glyph unicode="&#xa4;" d="M12 389l86 86q-86 104 -86 244q0 72 21.5 132t62.5 114l-84 84l76 75l82 -84q51 39 113.5 61.5t134.5 22.5q70 0 131 -22.5t115 -61.5l84 84l75 -75l-84 -84q39 -51 61.5 -112.5t22.5 -133.5q0 -139 -86 -244l86 -86l-75 -76l-84 86q-49 -41 -113 -63.5t-133 -22.5 q-72 0 -134.5 22.5t-111.5 63.5l-84 -86zM164 719q0 -53 20.5 -99.5t54 -80t80 -54t99.5 -20.5q51 0 98 20.5t81 54t54.5 80t20.5 99.5q0 51 -20.5 98t-54.5 81t-81 54.5t-98 20.5q-53 0 -99.5 -20.5t-80 -54.5t-54 -81t-20.5 -98z" />
<glyph unicode="&#xa5;" d="M41 1440h209l174 -629h4l168 629h199l-242 -690h215v-107h-252v-156h252v-106h-252v-381h-188v381h-262v106h262v156h-262v107h223z" />
<glyph unicode="&#xa6;" horiz-adv-x="454" d="M152 -31v586h151v-586h-151zM152 952v586h151v-586h-151z" />
<glyph unicode="&#xa7;" horiz-adv-x="948" d="M70 731q0 113 66.5 187.5t182.5 85.5l-4 4q-59 39 -89.5 103.5t-30.5 143.5q0 59 22.5 110.5t62 90.5t95 60.5t123.5 21.5q76 0 145.5 -24.5t138.5 -114.5l-143 -137q-31 53 -61.5 75.5t-75.5 22.5q-47 0 -78 -28.5t-31 -76.5q0 -29 7.5 -52t29 -51t61 -60.5t103.5 -77.5 q76 -53 130 -100.5t88 -92.5t50.5 -91t16.5 -99q0 -111 -63.5 -190t-168.5 -97q59 -39 97 -99.5t38 -158.5q0 -61 -24.5 -114.5t-67.5 -91.5t-102.5 -59.5t-128.5 -21.5q-78 0 -149.5 30t-143.5 116l137 149q41 -72 82 -94.5t82 -22.5q45 0 81 31t36 80q0 27 -8.5 49.5 t-30 47t-58 53t-92.5 67.5q-96 68 -159.5 121t-100.5 102.5t-51 97.5t-14 105zM268 748q0 -33 17.5 -67t64.5 -83q106 -111 195 -111q8 0 28.5 5.5t42 18.5t38 37.5t16.5 63.5q0 47 -34 94.5t-81 86.5q-53 41 -92 56t-76 15q-47 0 -83 -34.5t-36 -81.5z" />
<glyph unicode="&#xa8;" horiz-adv-x="417" d="M-86 1372q0 51 36 87t87 36t87 -36t36 -87t-36 -87t-87 -36t-87 36t-36 87zM258 1372q0 51 36 87t87 36t87 -36t36 -87t-36 -87t-87 -36t-87 36t-36 87z" />
<glyph unicode="&#xa9;" horiz-adv-x="1638" d="M35 754q0 162 61.5 305t168 249.5t248.5 168t306 61.5q162 0 305.5 -61.5t250 -168t168 -250t61.5 -304.5q0 -164 -61.5 -306.5t-168 -249t-250 -168t-305.5 -61.5q-164 0 -306 61.5t-248.5 168t-168 249t-61.5 306.5zM186 754q0 -131 49.5 -247t135.5 -202t201.5 -135 t246.5 -49t247 49t202 135t135 202t49 247t-49 246.5t-135 201.5t-202 135t-247 49t-246.5 -49t-201.5 -135t-135.5 -201.5t-49.5 -246.5zM385 756q0 102 32 190t91 152.5t143 100.5t191 36q74 0 139.5 -21.5t117.5 -62.5t87 -101.5t45 -140.5h-139q-18 86 -85 141.5 t-167 55.5q-74 0 -130.5 -27.5t-95.5 -75t-58 -111t-19 -136.5q0 -68 21.5 -132.5t61 -113.5t96 -79t128.5 -30q102 0 167.5 59.5t80.5 147.5h139q-14 -78 -49 -140t-85 -105.5t-113.5 -67t-135.5 -23.5q-104 0 -189.5 37t-146.5 102.5t-94 153.5t-33 191z" />
<glyph unicode="&#xaa;" horiz-adv-x="518" d="M31 973q0 133 57 184t191 51h69v60q0 35 -19.5 56.5t-72.5 21.5q-47 0 -68.5 -20.5t-25.5 -63.5l-131 30q14 102 73.5 137t155.5 35q117 0 172 -40t55 -132v-499h-139v96l-4 2q-27 -59 -64.5 -85t-105.5 -26q-18 0 -43 6.5t-47.5 27t-37.5 58t-15 101.5zM182 987 q0 -37 12.5 -62.5t53.5 -25.5q31 0 65.5 31t34.5 100v72h-33q-45 0 -71.5 -10.5t-40 -26.5t-17.5 -36.5t-4 -41.5z" />
<glyph unicode="&#xab;" horiz-adv-x="833" d="M53 573l189 318h198l-198 -318l198 -305h-198zM393 573l189 318h198l-198 -318l198 -305h-198z" />
<glyph unicode="&#xac;" horiz-adv-x="1228" d="M96 651v152h1037v-582h-152v430h-885z" />
<glyph unicode="&#xad;" horiz-adv-x="606" d="M104 492v178h398v-178h-398z" />
<glyph unicode="&#xae;" horiz-adv-x="1638" d="M35 754q0 162 61.5 305t168 249.5t248.5 168t306 61.5q162 0 305.5 -61.5t250 -168t168 -250t61.5 -304.5q0 -164 -61.5 -306.5t-168 -249t-250 -168t-305.5 -61.5q-164 0 -306 61.5t-248.5 168t-168 249t-61.5 306.5zM186 754q0 -131 49.5 -247t135.5 -202t201.5 -135 t246.5 -49t247 49t202 135t135 202t49 247t-49 246.5t-135 201.5t-202 135t-247 49t-246.5 -49t-201.5 -135t-135.5 -201.5t-49.5 -246.5zM516 301v907h346q160 0 239 -62.5t79 -195.5q0 -123 -66.5 -179t-167.5 -71l256 -399h-164l-243 395h-140v-395h-139zM655 815h162 q43 0 84 3t72 17.5t49 43t18 79.5q0 41 -17 67t-46 40t-63.5 19.5t-71.5 5.5h-187v-275z" />
<glyph unicode="&#xaf;" horiz-adv-x="417" d="M-68 1262v139h553v-139h-553z" />
<glyph unicode="&#xb0;" horiz-adv-x="819" d="M117 1171q0 61 22.5 114.5t62.5 93.5t93 62.5t115 22.5q61 0 114.5 -22.5t93 -62.5t62 -93t22.5 -115q0 -61 -22.5 -114t-62 -93t-93 -62.5t-114.5 -22.5t-114.5 22.5t-93.5 62.5t-62.5 93t-22.5 114zM236 1171q0 -72 51 -123t123 -51t123 51.5t51 122.5 q0 72 -51.5 123.5t-122.5 51.5q-72 0 -123 -51.5t-51 -123.5z" />
<glyph unicode="&#xb1;" horiz-adv-x="1228" d="M96 0v152h1037v-152h-1037zM96 555v152h443v329h151v-329h443v-152h-443v-330h-151v330h-443z" />
<glyph unicode="&#xb2;" horiz-adv-x="542" d="M23 1182q0 61 11 112.5t40.5 89t79 59t122.5 21.5q63 0 110.5 -18.5t76.5 -48t43 -66.5t14 -76q0 -78 -50 -180t-124 -225l-82 -135h234v-129h-471l213 385q55 100 83.5 166.5t28.5 105.5q0 37 -19.5 64.5t-51.5 27.5q-47 0 -66.5 -41t-24.5 -112h-167z" />
<glyph unicode="&#xb3;" horiz-adv-x="542" d="M33 838h151q0 -63 18.5 -101.5t65.5 -38.5q53 0 71.5 50.5t18.5 115.5q0 72 -25.5 119t-80.5 47q-43 0 -76 -41l-94 66l186 280h-213v129h449v-16l-213 -315h4q8 4 19.5 4h21.5q92 0 133 -75t41 -210q0 -127 -63.5 -205t-184.5 -78t-175 70t-54 199z" />
<glyph unicode="&#xb4;" horiz-adv-x="417" d="M88 1229l150 278h235l-233 -278h-152z" />
<glyph unicode="&#xb5;" horiz-adv-x="833" d="M109 -391v1493h198v-797q0 -66 27.5 -100.5t68.5 -34.5q59 0 91 48t32 108v776h199v-1102h-188v150h-5q-39 -98 -95 -134t-130 -34v-373h-198z" />
<glyph unicode="&#xb6;" horiz-adv-x="948" d="M29 1141q0 193 96 279.5t262 86.5h387v-1677h-151v1548h-142v-1548h-151v963q-57 0 -111.5 23.5t-96.5 68.5t-67.5 109.5t-25.5 146.5z" />
<glyph unicode="&#xb7;" horiz-adv-x="491" d="M100 653q0 59 43 102.5t103 43.5q59 0 102 -43t43 -103q0 -59 -43 -102t-102 -43t-102.5 43t-43.5 102z" />
<glyph unicode="&#xb8;" horiz-adv-x="417" d="M31 -319q43 66 63.5 131t24.5 135h178q-6 -63 -39 -139t-76 -127h-151z" />
<glyph unicode="&#xb9;" horiz-adv-x="499" d="M68 1188v133q57 27 118.5 65.5t106.5 77.5h49v-878h-152v671q-8 -10 -23 -20t-32.5 -19.5t-36 -17.5t-30.5 -12z" />
<glyph unicode="&#xba;" horiz-adv-x="544" d="M31 1120q0 72 11 135.5t39 109.5t75 72.5t116 26.5q70 0 117 -26.5t75 -72.5t39 -109.5t11 -135.5t-11 -133t-39 -107t-75 -73t-117 -27t-116.5 27t-74.5 73t-39 107t-11 133zM199 1133q0 -117 13 -175.5t60 -58.5t60.5 58.5t13.5 175.5q0 94 -11 153.5t-63 59.5 q-27 0 -41 -15.5t-21 -44.5t-9 -67.5t-2 -85.5z" />
<glyph unicode="&#xbb;" horiz-adv-x="833" d="M53 268l199 318l-199 305h199l188 -305l-188 -318h-199zM393 268l199 318l-199 305h199l188 -305l-188 -318h-199z" />
<glyph unicode="&#xbc;" horiz-adv-x="1249" d="M68 1188v133q57 27 118.5 65.5t106.5 77.5h49v-878h-152v671q-8 -10 -23 -20t-32.5 -19.5t-36 -17.5t-30.5 -12zM84 -41l883 1522h131l-883 -1522h-131zM688 141v109l279 612h149v-592h101v-129h-101v-141h-139v141h-289zM813 270h164v373h-4z" />
<glyph unicode="&#xbd;" horiz-adv-x="1249" d="M68 1188v133q57 27 118.5 65.5t106.5 77.5h49v-878h-152v671q-8 -10 -23 -20t-32.5 -19.5t-36 -17.5t-30.5 -12zM84 -41l883 1522h131l-883 -1522h-131zM719 596q0 61 11 112.5t41 89.5t79 59.5t123 21.5q63 0 110 -18.5t76 -48.5t43.5 -66.5t14.5 -75.5 q0 -78 -50.5 -180.5t-124.5 -225.5l-81 -135h233v-129h-471l213 385q55 100 84 166.5t29 105.5q0 37 -19.5 65t-52.5 28q-47 0 -66.5 -41t-23.5 -113h-168z" />
<glyph unicode="&#xbe;" horiz-adv-x="1249" d="M33 838h151q0 -63 18.5 -101.5t65.5 -38.5q53 0 71.5 50.5t18.5 115.5q0 72 -25.5 119t-80.5 47q-43 0 -76 -41l-94 66l186 280h-213v129h449v-16l-213 -315h4q8 4 19.5 4h21.5q92 0 133 -75t41 -210q0 -127 -63.5 -205t-184.5 -78t-175 70t-54 199zM147 -41l883 1522 h131l-882 -1522h-132zM688 141v109l279 612h149v-592h101v-129h-101v-141h-139v141h-289zM813 270h164v373h-4z" />
<glyph unicode="&#xbf;" horiz-adv-x="720" d="M41 -53q0 47 5 85t15.5 73.5t29 71.5t46.5 77l90 135q25 37 40.5 73t24.5 78t12 91t5 114h178q-4 -94 -8 -155.5t-13 -104.5t-23.5 -74.5t-34.5 -66.5l-86 -139q-23 -37 -37.5 -66.5t-22.5 -58.5t-10 -61.5t-2 -75.5q0 -88 23.5 -128t82.5 -40q37 0 59.5 20.5t35 56 t16.5 82t4 99.5h209v-33q0 -88 -19.5 -162t-60.5 -128t-104.5 -83.5t-149.5 -29.5q-61 0 -116.5 19t-97.5 61t-66.5 109t-24.5 161zM274 1024q0 51 36 87t87 36t87 -36t36 -87t-35.5 -87t-87.5 -36q-51 0 -87 36t-36 87z" />
<glyph unicode="&#xc0;" horiz-adv-x="948" d="M41 0l317 1507h209l340 -1507h-219l-59 311h-330l-59 -311h-199zM199 1861h235l150 -278h-152zM332 479h266l-131 688h-4z" />
<glyph unicode="&#xc1;" horiz-adv-x="948" d="M41 0l317 1507h209l340 -1507h-219l-59 311h-330l-59 -311h-199zM332 479h266l-131 688h-4zM342 1583l150 278h235l-233 -278h-152z" />
<glyph unicode="&#xc2;" horiz-adv-x="948" d="M41 0l317 1507h209l340 -1507h-219l-59 311h-330l-59 -311h-199zM203 1583l155 278h209l156 -278h-168l-100 160l-101 -160h-151zM332 479h266l-131 688h-4z" />
<glyph unicode="&#xc3;" horiz-adv-x="948" d="M41 0l317 1507h209l340 -1507h-219l-59 311h-330l-59 -311h-199zM186 1603q4 37 11.5 74t25.5 68q18 29 49 47t76 18q20 0 45 -5t84 -26q45 -16 65.5 -20t30.5 -4q51 0 70 67h96q0 -43 -12 -81.5t-35.5 -69.5t-56.5 -49.5t-72 -18.5q-20 0 -42.5 7.5t-76.5 31.5 q-41 18 -59 23.5t-35 5.5q-25 0 -41 -13.5t-26 -54.5h-97zM332 479h266l-131 688h-4z" />
<glyph unicode="&#xc4;" horiz-adv-x="948" d="M41 0l317 1507h209l340 -1507h-219l-59 311h-330l-59 -311h-199zM168 1726q0 51 36 87t87 36t87 -36t36 -87t-36 -87t-87 -36t-87 36t-36 87zM332 479h266l-131 688h-4zM512 1726q0 51 36 87t87 36t87 -36t36 -87t-36 -87t-87 -36t-87 36t-36 87z" />
<glyph unicode="&#xc5;" horiz-adv-x="948" d="M41 0l317 1507h209l340 -1507h-219l-59 311h-330l-59 -311h-199zM283 1733q0 76 52 128t128 52t128 -52t52 -128t-52 -128t-128 -52t-128 52t-52 128zM332 479h266l-131 688h-4zM369 1733q0 -39 27.5 -66.5t66.5 -27.5t66.5 27.5t27.5 66.5t-27.5 66.5t-66.5 27.5 t-66.5 -27.5t-27.5 -66.5z" />
<glyph unicode="&#xc6;" horiz-adv-x="1290" d="M41 0l465 1507h711v-178h-375v-440h375v-178h-375v-523h375v-188h-584v311h-293l-90 -311h-209zM387 479h246v889h-4z" />
<glyph unicode="&#xc7;" horiz-adv-x="948" d="M76 764q0 74 5 160t20.5 172t43 165.5t75.5 141t117 98.5t165 37q135 0 226 -84t134 -260l-207 -70q-18 123 -60 174.5t-95 51.5q-61 0 -101.5 -49.5t-63 -129t-31.5 -184t-9 -215.5q0 -127 8 -238.5t30.5 -195.5t60.5 -132t100 -48q43 0 74.5 25.5t54 66.5t37 93 t20.5 108l201 -72q-12 -84 -40 -159t-75 -130t-115.5 -88t-161.5 -33q-104 0 -181 43t-129 138.5t-77.5 246t-25.5 367.5zM317 -319q43 66 63.5 131t25.5 135h178q-6 -63 -39 -139t-76 -127h-152z" />
<glyph unicode="&#xc8;" horiz-adv-x="720" d="M109 1861h235l150 -278h-152zM115 0v1507h549v-178h-340v-440h340v-178h-340v-533h340v-178h-549z" />
<glyph unicode="&#xc9;" horiz-adv-x="720" d="M115 0v1507h549v-178h-340v-440h340v-178h-340v-533h340v-178h-549zM252 1583l150 278h235l-233 -278h-152z" />
<glyph unicode="&#xca;" horiz-adv-x="720" d="M113 1583l155 278h209l156 -278h-168l-100 160l-101 -160h-151zM115 0v1507h549v-178h-340v-440h340v-178h-340v-533h340v-178h-549z" />
<glyph unicode="&#xcb;" horiz-adv-x="720" d="M78 1726q0 51 36 87t87 36t87 -36t36 -87t-36 -87t-87 -36t-87 36t-36 87zM115 0v1507h549v-178h-340v-440h340v-178h-340v-533h340v-178h-549zM422 1726q0 51 36 87t87 36t87 -36t36 -87t-36 -87t-87 -36t-87 36t-36 87z" />
<glyph unicode="&#xcc;" horiz-adv-x="491" d="M-30 1861h235l150 -278h-152zM141 0v1507h209v-1507h-209z" />
<glyph unicode="&#xcd;" horiz-adv-x="491" d="M113 1583l150 278h235l-233 -278h-152zM141 0v1507h209v-1507h-209z" />
<glyph unicode="&#xce;" horiz-adv-x="491" d="M-26 1583l155 278h209l156 -278h-168l-100 160l-101 -160h-151zM141 0v1507h209v-1507h-209z" />
<glyph unicode="&#xcf;" horiz-adv-x="491" d="M-61 1726q0 51 36 87t87 36t87 -36t36 -87t-36 -87t-87 -36t-87 36t-36 87zM141 0v1507h209v-1507h-209zM283 1726q0 51 36 87t87 36t87 -36t36 -87t-36 -87t-87 -36t-87 36t-36 87z" />
<glyph unicode="&#xd0;" horiz-adv-x="948" d="M4 721v168h113v618h243q150 0 247.5 -64.5t154.5 -172t80.5 -244.5t23.5 -285q0 -121 -21.5 -252t-76.5 -239.5t-150.5 -179t-240.5 -70.5h-260v721h-113zM326 178q94 0 156.5 45t99 123t51 183.5t14.5 226.5q0 281 -81 427t-240 146v-440h170v-168h-170v-543z" />
<glyph unicode="&#xd1;" horiz-adv-x="948" d="M115 0v1507h209l307 -954h4v954h199v-1507h-209l-308 954h-4v-954h-198zM198 1603q4 37 11.5 74t25.5 68q18 29 49 47t76 18q20 0 45 -5t84 -26q45 -16 65.5 -20t30.5 -4q51 0 70 67h96q0 -43 -12 -81.5t-35.5 -69.5t-56.5 -49.5t-72 -18.5q-20 0 -42.5 7.5t-76.5 31.5 q-41 18 -59 23.5t-35 5.5q-25 0 -41 -13.5t-26 -54.5h-97z" />
<glyph unicode="&#xd2;" horiz-adv-x="948" d="M76 754q0 156 16.5 298t61.5 249.5t121.5 172t199.5 64.5q135 0 214 -67.5t120 -178t52 -252t11 -286.5q0 -156 -16 -298.5t-60 -250t-122 -172t-199 -64.5q-135 0 -215 67.5t-121 178.5t-52 252.5t-11 286.5zM211 1861h235l150 -278h-152zM295 721q0 -115 7 -217.5 t26.5 -179t54.5 -121.5t92 -45q55 0 90 46t54.5 131t26.5 202.5t7 263.5q0 172 -13 278.5t-37.5 167t-57.5 82t-70 21.5q-41 0 -73.5 -31t-56 -104.5t-37 -194.5t-13.5 -299z" />
<glyph unicode="&#xd3;" horiz-adv-x="948" d="M76 754q0 156 16.5 298t61.5 249.5t121.5 172t199.5 64.5q135 0 214 -67.5t120 -178t52 -252t11 -286.5q0 -156 -16 -298.5t-60 -250t-122 -172t-199 -64.5q-135 0 -215 67.5t-121 178.5t-52 252.5t-11 286.5zM295 721q0 -115 7 -217.5t26.5 -179t54.5 -121.5t92 -45 q55 0 90 46t54.5 131t26.5 202.5t7 263.5q0 172 -13 278.5t-37.5 167t-57.5 82t-70 21.5q-41 0 -73.5 -31t-56 -104.5t-37 -194.5t-13.5 -299zM354 1583l150 278h235l-233 -278h-152z" />
<glyph unicode="&#xd4;" horiz-adv-x="948" d="M76 754q0 156 16.5 298t61.5 249.5t121.5 172t199.5 64.5q135 0 214 -67.5t120 -178t52 -252t11 -286.5q0 -156 -16 -298.5t-60 -250t-122 -172t-199 -64.5q-135 0 -215 67.5t-121 178.5t-52 252.5t-11 286.5zM215 1583l155 278h209l156 -278h-168l-100 160l-101 -160 h-151zM295 721q0 -115 7 -217.5t26.5 -179t54.5 -121.5t92 -45q55 0 90 46t54.5 131t26.5 202.5t7 263.5q0 172 -13 278.5t-37.5 167t-57.5 82t-70 21.5q-41 0 -73.5 -31t-56 -104.5t-37 -194.5t-13.5 -299z" />
<glyph unicode="&#xd5;" horiz-adv-x="948" d="M76 754q0 156 16.5 298t61.5 249.5t121.5 172t199.5 64.5q135 0 214 -67.5t120 -178t52 -252t11 -286.5q0 -156 -16 -298.5t-60 -250t-122 -172t-199 -64.5q-135 0 -215 67.5t-121 178.5t-52 252.5t-11 286.5zM198 1603q4 37 11.5 74t25.5 68q18 29 49 47t76 18 q20 0 45 -5t84 -26q45 -16 65.5 -20t30.5 -4q51 0 70 67h96q0 -43 -12 -81.5t-35.5 -69.5t-56.5 -49.5t-72 -18.5q-20 0 -42.5 7.5t-76.5 31.5q-41 18 -59 23.5t-35 5.5q-25 0 -41 -13.5t-26 -54.5h-97zM295 721q0 -115 7 -217.5t26.5 -179t54.5 -121.5t92 -45q55 0 90 46 t54.5 131t26.5 202.5t7 263.5q0 172 -13 278.5t-37.5 167t-57.5 82t-70 21.5q-41 0 -73.5 -31t-56 -104.5t-37 -194.5t-13.5 -299z" />
<glyph unicode="&#xd6;" horiz-adv-x="948" d="M76 754q0 156 16.5 298t61.5 249.5t121.5 172t199.5 64.5q135 0 214 -67.5t120 -178t52 -252t11 -286.5q0 -156 -16 -298.5t-60 -250t-122 -172t-199 -64.5q-135 0 -215 67.5t-121 178.5t-52 252.5t-11 286.5zM180 1726q0 51 36 87t87 36t87 -36t36 -87t-36 -87t-87 -36 t-87 36t-36 87zM295 721q0 -115 7 -217.5t26.5 -179t54.5 -121.5t92 -45q55 0 90 46t54.5 131t26.5 202.5t7 263.5q0 172 -13 278.5t-37.5 167t-57.5 82t-70 21.5q-41 0 -73.5 -31t-56 -104.5t-37 -194.5t-13.5 -299zM524 1726q0 51 36 87t87 36t87 -36t36 -87t-36 -87 t-87 -36t-87 36t-36 87z" />
<glyph unicode="&#xd7;" horiz-adv-x="1228" d="M145 154l365 364l-365 365l105 104l364 -364l365 364l104 -104l-364 -365l364 -364l-104 -105l-365 365l-364 -365z" />
<glyph unicode="&#xd8;" horiz-adv-x="948" d="M49 -14l101 207q-47 111 -60.5 259t-13.5 302q0 156 16.5 298t61.5 249.5t121.5 172t199.5 64.5q92 0 155.5 -31.5t108.5 -87.5l70 146l90 -43l-100 -207q47 -113 60 -260.5t13 -300.5q0 -156 -16 -298.5t-60 -250t-122 -172t-199 -64.5q-92 0 -156.5 32t-107.5 89 l-72 -147zM295 721q0 -57 1 -110.5t3 -102.5h4l320 670q-25 102 -64 137t-84 35q-41 0 -73.5 -31t-56 -104.5t-37 -194.5t-13.5 -299zM328 332q18 -82 54 -128t93 -46q55 0 90 46t54.5 131t26.5 202.5t7 263.5q0 115 -6 194h-4z" />
<glyph unicode="&#xd9;" horiz-adv-x="946" d="M115 373v1134h209v-1132q0 -35 5 -74t21.5 -70.5t46 -52t78.5 -20.5q47 0 76 20.5t45 52t21.5 70.5t5.5 74v1132h208v-1134q0 -117 -26.5 -194t-74.5 -124t-113.5 -66.5t-141.5 -19.5q-78 0 -144.5 19.5t-114.5 66.5t-74.5 124t-26.5 194zM197 1861h235l150 -278h-152z " />
<glyph unicode="&#xda;" horiz-adv-x="946" d="M115 373v1134h209v-1132q0 -35 5 -74t21.5 -70.5t46 -52t78.5 -20.5q47 0 76 20.5t45 52t21.5 70.5t5.5 74v1132h208v-1134q0 -117 -26.5 -194t-74.5 -124t-113.5 -66.5t-141.5 -19.5q-78 0 -144.5 19.5t-114.5 66.5t-74.5 124t-26.5 194zM340 1583l150 278h235 l-233 -278h-152z" />
<glyph unicode="&#xdb;" horiz-adv-x="946" d="M115 373v1134h209v-1132q0 -35 5 -74t21.5 -70.5t46 -52t78.5 -20.5q47 0 76 20.5t45 52t21.5 70.5t5.5 74v1132h208v-1134q0 -117 -26.5 -194t-74.5 -124t-113.5 -66.5t-141.5 -19.5q-78 0 -144.5 19.5t-114.5 66.5t-74.5 124t-26.5 194zM201 1583l155 278h209l156 -278 h-168l-100 160l-101 -160h-151z" />
<glyph unicode="&#xdc;" horiz-adv-x="946" d="M115 373v1134h209v-1132q0 -35 5 -74t21.5 -70.5t46 -52t78.5 -20.5q47 0 76 20.5t45 52t21.5 70.5t5.5 74v1132h208v-1134q0 -117 -26.5 -194t-74.5 -124t-113.5 -66.5t-141.5 -19.5q-78 0 -144.5 19.5t-114.5 66.5t-74.5 124t-26.5 194zM166 1726q0 51 36 87t87 36 t87 -36t36 -87t-36 -87t-87 -36t-87 36t-36 87zM510 1726q0 51 36 87t87 36t87 -36t36 -87t-36 -87t-87 -36t-87 36t-36 87z" />
<glyph unicode="&#xdd;" horiz-adv-x="833" d="M41 1507h219l164 -628h4l156 628h209l-267 -899v-608h-209v608zM297 1583l150 278h235l-233 -278h-152z" />
<glyph unicode="&#xde;" horiz-adv-x="833" d="M115 0v1507h209v-243q102 0 185 -26t142.5 -81t92 -144t32.5 -216q0 -104 -25.5 -191.5t-77.5 -149t-130 -96t-185 -34.5h-34v-326h-209zM324 504q68 0 112.5 23.5t71.5 63.5t38 94t11 116q0 131 -55.5 207.5t-177.5 76.5v-581z" />
<glyph unicode="&#xdf;" horiz-adv-x="833" d="M109 0v1174q0 70 16 134t51 112t90.5 77t132.5 29q82 0 142.5 -28t99.5 -77t57.5 -117.5t18.5 -148.5q0 -125 -36 -201.5t-134 -103.5v-4q74 -12 118 -49t67.5 -92.5t30.5 -124t7 -142.5q0 -70 -14.5 -149.5t-48 -148t-91 -113.5t-143.5 -45q-16 0 -28.5 2t-22.5 6 l-33 188q14 -8 39 -8q39 0 64.5 25.5t41 64.5t21.5 86t6 90q0 70 -7 127.5t-27.5 98t-55.5 64.5t-92 26v168q29 0 54.5 10t44 32.5t29.5 61.5t11 96q0 74 -8 119t-23.5 69.5t-36 32t-44.5 7.5q-49 0 -74 -39t-25 -105v-1204h-198z" />
<glyph unicode="&#xe0;" horiz-adv-x="796" d="M55 293q0 109 21.5 183.5t69 120.5t120 65.5t174.5 19.5h74v141q0 55 -27.5 92t-97.5 37q-59 0 -89 -33.5t-38 -105.5l-176 49q12 74 40 124t70 80t93 42t110 12q143 0 223 -67.5t80 -221.5v-831h-188v162h-4q-43 -98 -97.5 -139t-131.5 -41q-29 0 -68 11t-74 44 t-59.5 94.5t-24.5 161.5zM135 1507h235l150 -278h-152zM254 317q0 -74 20.5 -120.5t85.5 -46.5q23 0 49.5 13t50 43t39 74t15.5 105v145h-51q-72 0 -113 -18t-62.5 -48t-27.5 -69t-6 -78z" />
<glyph unicode="&#xe1;" horiz-adv-x="796" d="M55 293q0 109 21.5 183.5t69 120.5t120 65.5t174.5 19.5h74v141q0 55 -27.5 92t-97.5 37q-59 0 -89 -33.5t-38 -105.5l-176 49q12 74 40 124t70 80t93 42t110 12q143 0 223 -67.5t80 -221.5v-831h-188v162h-4q-43 -98 -97.5 -139t-131.5 -41q-29 0 -68 11t-74 44 t-59.5 94.5t-24.5 161.5zM254 317q0 -74 20.5 -120.5t85.5 -46.5q23 0 49.5 13t50 43t39 74t15.5 105v145h-51q-72 0 -113 -18t-62.5 -48t-27.5 -69t-6 -78zM278 1229l150 278h235l-233 -278h-152z" />
<glyph unicode="&#xe2;" horiz-adv-x="796" d="M55 293q0 109 21.5 183.5t69 120.5t120 65.5t174.5 19.5h74v141q0 55 -27.5 92t-97.5 37q-59 0 -89 -33.5t-38 -105.5l-176 49q12 74 40 124t70 80t93 42t110 12q143 0 223 -67.5t80 -221.5v-831h-188v162h-4q-43 -98 -97.5 -139t-131.5 -41q-29 0 -68 11t-74 44 t-59.5 94.5t-24.5 161.5zM139 1229l155 278h209l156 -278h-168l-100 160l-101 -160h-151zM254 317q0 -74 20.5 -120.5t85.5 -46.5q23 0 49.5 13t50 43t39 74t15.5 105v145h-51q-72 0 -113 -18t-62.5 -48t-27.5 -69t-6 -78z" />
<glyph unicode="&#xe3;" horiz-adv-x="796" d="M55 293q0 109 21.5 183.5t69 120.5t120 65.5t174.5 19.5h74v141q0 55 -27.5 92t-97.5 37q-59 0 -89 -33.5t-38 -105.5l-176 49q12 74 40 124t70 80t93 42t110 12q143 0 223 -67.5t80 -221.5v-831h-188v162h-4q-43 -98 -97.5 -139t-131.5 -41q-29 0 -68 11t-74 44 t-59.5 94.5t-24.5 161.5zM122 1249q4 37 11.5 74t25.5 68q18 29 49 47t76 18q20 0 45 -5t84 -26q45 -16 65.5 -20t30.5 -4q51 0 70 67h96q0 -43 -12 -81.5t-35.5 -69.5t-56.5 -49.5t-72 -18.5q-20 0 -42.5 7.5t-76.5 31.5q-41 18 -59 23.5t-35 5.5q-25 0 -41 -13.5 t-26 -54.5h-97zM254 317q0 -74 20.5 -120.5t85.5 -46.5q23 0 49.5 13t50 43t39 74t15.5 105v145h-51q-72 0 -113 -18t-62.5 -48t-27.5 -69t-6 -78z" />
<glyph unicode="&#xe4;" horiz-adv-x="796" d="M55 293q0 109 21.5 183.5t69 120.5t120 65.5t174.5 19.5h74v141q0 55 -27.5 92t-97.5 37q-59 0 -89 -33.5t-38 -105.5l-176 49q12 74 40 124t70 80t93 42t110 12q143 0 223 -67.5t80 -221.5v-831h-188v162h-4q-43 -98 -97.5 -139t-131.5 -41q-29 0 -68 11t-74 44 t-59.5 94.5t-24.5 161.5zM104 1372q0 51 36 87t87 36t87 -36t36 -87t-36 -87t-87 -36t-87 36t-36 87zM254 317q0 -74 20.5 -120.5t85.5 -46.5q23 0 49.5 13t50 43t39 74t15.5 105v145h-51q-72 0 -113 -18t-62.5 -48t-27.5 -69t-6 -78zM448 1372q0 51 36 87t87 36t87 -36 t36 -87t-36 -87t-87 -36t-87 36t-36 87z" />
<glyph unicode="&#xe5;" horiz-adv-x="796" d="M55 293q0 109 21.5 183.5t69 120.5t120 65.5t174.5 19.5h74v141q0 55 -27.5 92t-97.5 37q-59 0 -89 -33.5t-38 -105.5l-176 49q12 74 40 124t70 80t93 42t110 12q143 0 223 -67.5t80 -221.5v-831h-188v162h-4q-43 -98 -97.5 -139t-131.5 -41q-29 0 -68 11t-74 44 t-59.5 94.5t-24.5 161.5zM219 1358q0 76 52 128t128 52t128 -52t52 -128t-52 -128t-128 -52t-128 52t-52 128zM254 317q0 -74 20.5 -120.5t85.5 -46.5q23 0 49.5 13t50 43t39 74t15.5 105v145h-51q-72 0 -113 -18t-62.5 -48t-27.5 -69t-6 -78zM305 1358q0 -39 27.5 -66.5 t66.5 -27.5t66.5 27.5t27.5 66.5t-27.5 66.5t-66.5 27.5t-66.5 -27.5t-27.5 -66.5z" />
<glyph unicode="&#xe6;" horiz-adv-x="1138" d="M49 293q0 109 21.5 183.5t68.5 120.5t120 65.5t175 19.5h53v90q0 180 -116 180q-57 0 -85 -39t-36 -100l-172 49q18 119 89 188.5t206 69.5q80 0 139 -32.5t82 -86.5q41 59 87 89t107 30q145 0 223.5 -129t78.5 -360v-101h-424v-163q0 -96 27.5 -156.5t94.5 -60.5 q49 0 77 39.5t36 158.5h178q-6 -66 -22.5 -131t-49 -117.5t-85 -85t-127.5 -32.5q-55 0 -94 15t-66 42t-44.5 60.5t-29.5 70.5q-47 -92 -106.5 -140t-153.5 -48q-74 0 -122 27.5t-76.5 72.5t-41 100.5t-12.5 110.5zM238 319q0 -29 5 -59.5t19 -55t37 -39.5t57 -15 q31 0 54.5 18t41 46t26.5 59.5t9 60.5v196q-131 0 -190 -44t-59 -167zM666 682h235q-2 49 -6 98t-16.5 87t-35 61.5t-61.5 23.5q-41 0 -63.5 -23.5t-33.5 -61.5t-15 -86t-4 -99z" />
<glyph unicode="&#xe7;" horiz-adv-x="720" d="M74 532q0 307 76.5 447.5t244.5 140.5q72 0 122 -27.5t82 -70.5t47.5 -96.5t17.5 -104.5l-189 -41q-2 80 -21.5 121t-68.5 41q-25 0 -45.5 -13.5t-35.5 -55.5t-23.5 -118.5t-8.5 -205.5q0 -190 26 -289.5t89 -99.5q49 0 73.5 42t35.5 146l178 -61q-23 -152 -89.5 -228.5 t-197.5 -76.5q-160 0 -236.5 132t-76.5 418zM195 -309q43 66 63.5 131t24.5 135h178q-6 -63 -39 -139t-76 -127h-151z" />
<glyph unicode="&#xe8;" horiz-adv-x="833" d="M86 580q0 283 90 411.5t250 128.5q147 0 234.5 -111.5t87.5 -320.5v-158h-463q0 -74 4 -142.5t18.5 -121.5t42 -84.5t76.5 -31.5q35 0 58.5 18t38 48t20.5 63.5t8 64.5h178q0 -70 -19.5 -135.5t-57.5 -115.5t-95 -80.5t-135 -30.5q-86 0 -149.5 31.5t-105.5 102 t-61.5 185.5t-19.5 279zM154 1507h235l150 -278h-152zM285 682h274q0 49 -7 97t-22.5 87t-43 62.5t-66.5 23.5q-41 0 -66.5 -23.5t-41 -62.5t-21.5 -87t-6 -97z" />
<glyph unicode="&#xe9;" horiz-adv-x="833" d="M86 580q0 283 90 411.5t250 128.5q147 0 234.5 -111.5t87.5 -320.5v-158h-463q0 -74 4 -142.5t18.5 -121.5t42 -84.5t76.5 -31.5q35 0 58.5 18t38 48t20.5 63.5t8 64.5h178q0 -70 -19.5 -135.5t-57.5 -115.5t-95 -80.5t-135 -30.5q-86 0 -149.5 31.5t-105.5 102 t-61.5 185.5t-19.5 279zM285 682h274q0 49 -7 97t-22.5 87t-43 62.5t-66.5 23.5q-41 0 -66.5 -23.5t-41 -62.5t-21.5 -87t-6 -97zM297 1229l150 278h235l-233 -278h-152z" />
<glyph unicode="&#xea;" horiz-adv-x="833" d="M86 580q0 283 90 411.5t250 128.5q147 0 234.5 -111.5t87.5 -320.5v-158h-463q0 -74 4 -142.5t18.5 -121.5t42 -84.5t76.5 -31.5q35 0 58.5 18t38 48t20.5 63.5t8 64.5h178q0 -70 -19.5 -135.5t-57.5 -115.5t-95 -80.5t-135 -30.5q-86 0 -149.5 31.5t-105.5 102 t-61.5 185.5t-19.5 279zM158 1229l155 278h209l156 -278h-168l-100 160l-101 -160h-151zM285 682h274q0 49 -7 97t-22.5 87t-43 62.5t-66.5 23.5q-41 0 -66.5 -23.5t-41 -62.5t-21.5 -87t-6 -97z" />
<glyph unicode="&#xeb;" horiz-adv-x="833" d="M86 580q0 283 90 411.5t250 128.5q147 0 234.5 -111.5t87.5 -320.5v-158h-463q0 -74 4 -142.5t18.5 -121.5t42 -84.5t76.5 -31.5q35 0 58.5 18t38 48t20.5 63.5t8 64.5h178q0 -70 -19.5 -135.5t-57.5 -115.5t-95 -80.5t-135 -30.5q-86 0 -149.5 31.5t-105.5 102 t-61.5 185.5t-19.5 279zM123 1372q0 51 36 87t87 36t87 -36t36 -87t-36 -87t-87 -36t-87 36t-36 87zM285 682h274q0 49 -7 97t-22.5 87t-43 62.5t-66.5 23.5q-41 0 -66.5 -23.5t-41 -62.5t-21.5 -87t-6 -97zM467 1372q0 51 36 87t87 36t87 -36t36 -87t-36 -87t-87 -36 t-87 36t-36 87z" />
<glyph unicode="&#xec;" horiz-adv-x="415" d="M-55 1507h235l150 -278h-152zM109 0v1102h198v-1102h-198z" />
<glyph unicode="&#xed;" horiz-adv-x="415" d="M88 1229l150 278h235l-233 -278h-152zM109 0v1102h198v-1102h-198z" />
<glyph unicode="&#xee;" horiz-adv-x="415" d="M-51 1229l155 278h209l156 -278h-168l-100 160l-101 -160h-151zM109 0v1102h198v-1102h-198z" />
<glyph unicode="&#xef;" horiz-adv-x="415" d="M-86 1372q0 51 36 87t87 36t87 -36t36 -87t-36 -87t-87 -36t-87 36t-36 87zM109 0v1102h198v-1102h-198zM258 1372q0 51 36 87t87 36t87 -36t36 -87t-36 -87t-87 -36t-87 36t-36 87z" />
<glyph unicode="&#xf0;" d="M74 551q0 127 19.5 231.5t58 180t98 116.5t137.5 41q25 0 53.5 -10t59.5 -41l4 4q-53 121 -146 221l-163 -94l-70 88l149 86q-57 51 -124 90l108 113q41 -20 84 -48t86 -65l158 88l69 -88l-145 -84q106 -117 179 -302t73 -423q0 -166 -17.5 -291.5t-57.5 -210.5 t-105.5 -128t-163.5 -43t-164 45t-105.5 121.5t-57 180t-17.5 222.5zM283 604q0 -455 135 -454q135 0 135 454q0 76 -6 139.5t-21.5 109.5t-42 72.5t-65.5 26.5t-65.5 -26.5t-42 -72.5t-21.5 -109.5t-6 -139.5z" />
<glyph unicode="&#xf1;" horiz-adv-x="833" d="M109 0v1102h188v-150h4q37 92 91 130t128 38q41 0 78 -18.5t65.5 -50t45 -76.5t16.5 -98v-877h-199v797q0 66 -27.5 100.5t-68.5 34.5q-59 0 -91 -48t-32 -108v-776h-198zM141 1249q4 37 11.5 74t25.5 68q18 29 49 47t76 18q20 0 45 -5t84 -26q45 -16 65.5 -20t30.5 -4 q51 0 70 67h96q0 -43 -12 -81.5t-35.5 -69.5t-56.5 -49.5t-72 -18.5q-20 0 -42.5 7.5t-76.5 31.5q-41 18 -59 23.5t-35 5.5q-25 0 -41 -13.5t-26 -54.5h-97z" />
<glyph unicode="&#xf2;" d="M74 551q0 119 17.5 222.5t57 180t105 121.5t164.5 45q98 0 163.5 -45t105.5 -121.5t57.5 -180t17.5 -222.5t-17.5 -222.5t-57.5 -180t-105.5 -121.5t-163.5 -45t-164 45t-105.5 121.5t-57 180t-17.5 222.5zM154 1507h235l150 -278h-152zM283 604q0 -454 135 -454t135 454 q0 76 -6 139.5t-21.5 109.5t-42 72.5t-65.5 26.5t-65.5 -26.5t-42 -72.5t-21.5 -109.5t-6 -139.5z" />
<glyph unicode="&#xf3;" d="M74 551q0 119 17.5 222.5t57 180t105 121.5t164.5 45q98 0 163.5 -45t105.5 -121.5t57.5 -180t17.5 -222.5t-17.5 -222.5t-57.5 -180t-105.5 -121.5t-163.5 -45t-164 45t-105.5 121.5t-57 180t-17.5 222.5zM283 604q0 -454 135 -454t135 454q0 76 -6 139.5t-21.5 109.5 t-42 72.5t-65.5 26.5t-65.5 -26.5t-42 -72.5t-21.5 -109.5t-6 -139.5zM297 1229l150 278h235l-233 -278h-152z" />
<glyph unicode="&#xf4;" d="M74 551q0 119 17.5 222.5t57 180t105 121.5t164.5 45q98 0 163.5 -45t105.5 -121.5t57.5 -180t17.5 -222.5t-17.5 -222.5t-57.5 -180t-105.5 -121.5t-163.5 -45t-164 45t-105.5 121.5t-57 180t-17.5 222.5zM158 1229l155 278h209l156 -278h-168l-100 160l-101 -160h-151z M283 604q0 -454 135 -454t135 454q0 76 -6 139.5t-21.5 109.5t-42 72.5t-65.5 26.5t-65.5 -26.5t-42 -72.5t-21.5 -109.5t-6 -139.5z" />
<glyph unicode="&#xf5;" d="M74 551q0 119 17.5 222.5t57 180t105 121.5t164.5 45q98 0 163.5 -45t105.5 -121.5t57.5 -180t17.5 -222.5t-17.5 -222.5t-57.5 -180t-105.5 -121.5t-163.5 -45t-164 45t-105.5 121.5t-57 180t-17.5 222.5zM141 1249q4 37 11.5 74t25.5 68q18 29 49 47t76 18q20 0 45 -5 t84 -26q45 -16 65.5 -20t30.5 -4q51 0 70 67h96q0 -43 -12 -81.5t-35.5 -69.5t-56.5 -49.5t-72 -18.5q-20 0 -42.5 7.5t-76.5 31.5q-41 18 -59 23.5t-35 5.5q-25 0 -41 -13.5t-26 -54.5h-97zM283 604q0 -454 135 -454t135 454q0 76 -6 139.5t-21.5 109.5t-42 72.5 t-65.5 26.5t-65.5 -26.5t-42 -72.5t-21.5 -109.5t-6 -139.5z" />
<glyph unicode="&#xf6;" d="M74 551q0 119 17.5 222.5t57 180t105 121.5t164.5 45q98 0 163.5 -45t105.5 -121.5t57.5 -180t17.5 -222.5t-17.5 -222.5t-57.5 -180t-105.5 -121.5t-163.5 -45t-164 45t-105.5 121.5t-57 180t-17.5 222.5zM123 1372q0 51 36 87t87 36t87 -36t36 -87t-36 -87t-87 -36 t-87 36t-36 87zM283 604q0 -454 135 -454t135 454q0 76 -6 139.5t-21.5 109.5t-42 72.5t-65.5 26.5t-65.5 -26.5t-42 -72.5t-21.5 -109.5t-6 -139.5zM467 1372q0 51 36 87t87 36t87 -36t36 -87t-36 -87t-87 -36t-87 36t-36 87z" />
<glyph unicode="&#xf7;" horiz-adv-x="1228" d="M96 442v152h1037v-152h-1037zM475 94q0 59 40 99t99 40t99.5 -39.5t40.5 -99.5q0 -59 -40 -99t-100 -40q-59 0 -99 40t-40 99zM475 942q0 59 40 99t99 40t99.5 -40t40.5 -99t-40 -99t-100 -40q-59 0 -99 40t-40 99z" />
<glyph unicode="&#xf8;" d="M63 0l84 152q-41 76 -57 178t-16 221t17.5 222.5t57 180t105 121.5t164.5 45q70 0 122 -22.5t89 -63.5l61 113l82 -45l-84 -152q41 -78 57.5 -180t16.5 -219q0 -119 -17.5 -222.5t-57.5 -180t-105.5 -121.5t-163.5 -45q-131 0 -211 86l-62 -113zM283 604q0 -109 6 -190h4 l231 430q-29 109 -106 108q-39 0 -65.5 -26.5t-42 -72.5t-21.5 -109.5t-6 -139.5zM317 268q31 -119 101 -118q135 0 135 454v47.5t-2 42.5h-4z" />
<glyph unicode="&#xf9;" horiz-adv-x="833" d="M109 225v877h198v-797q0 -66 27.5 -100.5t68.5 -34.5q59 0 91 48t32 108v776h199v-1102h-188v150h-5q-37 -92 -91 -130t-128 -38q-41 0 -77.5 17t-65.5 50t-45 78t-16 98zM142 1507h235l150 -278h-152z" />
<glyph unicode="&#xfa;" horiz-adv-x="833" d="M109 225v877h198v-797q0 -66 27.5 -100.5t68.5 -34.5q59 0 91 48t32 108v776h199v-1102h-188v150h-5q-37 -92 -91 -130t-128 -38q-41 0 -77.5 17t-65.5 50t-45 78t-16 98zM285 1229l150 278h235l-233 -278h-152z" />
<glyph unicode="&#xfb;" horiz-adv-x="833" d="M109 225v877h198v-797q0 -66 27.5 -100.5t68.5 -34.5q59 0 91 48t32 108v776h199v-1102h-188v150h-5q-37 -92 -91 -130t-128 -38q-41 0 -77.5 17t-65.5 50t-45 78t-16 98zM146 1229l155 278h209l156 -278h-168l-100 160l-101 -160h-151z" />
<glyph unicode="&#xfc;" horiz-adv-x="833" d="M109 225v877h198v-797q0 -66 27.5 -100.5t68.5 -34.5q59 0 91 48t32 108v776h199v-1102h-188v150h-5q-37 -92 -91 -130t-128 -38q-41 0 -77.5 17t-65.5 50t-45 78t-16 98zM111 1372q0 51 36 87t87 36t87 -36t36 -87t-36 -87t-87 -36t-87 36t-36 87zM455 1372q0 51 36 87 t87 36t87 -36t36 -87t-36 -87t-87 -36t-87 36t-36 87z" />
<glyph unicode="&#xfd;" horiz-adv-x="720" d="M41 1102h199l133 -723h4l104 723h199l-307 -1493h-199l98 442zM240 1229l150 278h235l-233 -278h-152z" />
<glyph unicode="&#xfe;" d="M109 -391v1898h188v-577h4q35 102 84 146t127 44q49 0 94 -24.5t80 -88t55.5 -174t20.5 -280.5q0 -264 -63.5 -417.5t-192.5 -153.5q-82 0 -129 51t-76 147l-4 2v-573h-188zM297 551q0 -127 12.5 -204t30.5 -119t40.5 -55t45.5 -13q20 0 43 13t41 55t30.5 119t12.5 204 t-12.5 203.5t-30.5 118.5t-41 55.5t-43 13.5q-23 0 -45.5 -13.5t-40.5 -55.5t-30.5 -118.5t-12.5 -203.5z" />
<glyph unicode="&#xff;" horiz-adv-x="720" d="M41 1102h199l133 -723h4l104 723h199l-307 -1493h-199l98 442zM66 1372q0 51 36 87t87 36t87 -36t36 -87t-36 -87t-87 -36t-87 36t-36 87zM410 1372q0 51 36 87t87 36t87 -36t36 -87t-36 -87t-87 -36t-87 36t-36 87z" />
<glyph unicode="&#x152;" horiz-adv-x="1290" d="M76 754q0 156 16.5 298t61.5 249.5t121.5 172t199.5 64.5q45 0 75 -5t58 -11q29 -6 61.5 -10.5t78.5 -4.5h466v-178h-370v-440h370v-178h-370v-533h370v-178h-522q-31 0 -56.5 -4t-53.5 -10q-27 -6 -53.5 -11.5t-53.5 -5.5q-135 0 -215 67.5t-121 178.5t-52 252t-11 287z M295 754q0 -166 12 -281t37 -184.5t60.5 -100t82.5 -30.5q53 0 84 33.5t47.5 105.5t21.5 185.5t5 271.5t-5 270.5t-21.5 185t-47 106.5t-84.5 34q-47 0 -82.5 -31t-60.5 -100.5t-37 -184t-12 -280.5z" />
<glyph unicode="&#x153;" horiz-adv-x="1175" d="M61 573q0 117 20.5 217.5t61.5 174t101.5 114.5t140.5 41q78 0 132 -45t81 -117h4q25 78 82 120t129 42q145 0 223 -129t78 -360v-101h-424v-163q0 -96 27.5 -156.5t95.5 -60.5q49 0 77 39.5t36 158.5h178q-6 -66 -22.5 -131t-49.5 -117.5t-85 -85t-128 -32.5 q-96 0 -147 48t-72 109q-33 -78 -81 -117.5t-134 -39.5q-76 0 -129 33.5t-89 87t-57.5 120t-31.5 132t-13.5 124t-3.5 94.5zM260 571q0 -74 5 -148.5t19.5 -136t41 -99t69.5 -37.5q70 0 93.5 95t23.5 302q0 61 -2 132t-14.5 131t-36 101t-66.5 41q-47 0 -72.5 -39t-40 -97 t-17.5 -123.5t-3 -121.5zM690 682h236q-2 49 -6.5 98t-16.5 87t-34.5 61.5t-61.5 23.5q-41 0 -63.5 -23.5t-34 -61.5t-15.5 -86t-4 -99z" />
<glyph unicode="&#x178;" horiz-adv-x="833" d="M41 1507h219l164 -628h4l156 628h209l-267 -899v-608h-209v608zM123 1726q0 51 36 87t87 36t87 -36t36 -87t-36 -87t-87 -36t-87 36t-36 87zM467 1726q0 51 36 87t87 36t87 -36t36 -87t-36 -87t-87 -36t-87 36t-36 87z" />
<glyph unicode="&#x2c6;" horiz-adv-x="417" d="M-51 1229l155 278h209l156 -278h-168l-100 160l-101 -160h-151z" />
<glyph unicode="&#x2dc;" horiz-adv-x="417" d="M-68 1249q4 37 11.5 74t25.5 68q18 29 49 47t76 18q20 0 45 -5t84 -26q45 -16 65.5 -20t30.5 -4q51 0 70 67h96q0 -43 -12 -81.5t-35.5 -69.5t-56.5 -49.5t-72 -18.5q-20 0 -42.5 7.5t-76.5 31.5q-41 18 -59 23.5t-35 5.5q-25 0 -41 -13.5t-26 -54.5h-97z" />
<glyph unicode="&#x2000;" horiz-adv-x="956" />
<glyph unicode="&#x2001;" horiz-adv-x="1913" />
<glyph unicode="&#x2002;" horiz-adv-x="956" />
<glyph unicode="&#x2003;" horiz-adv-x="1913" />
<glyph unicode="&#x2004;" horiz-adv-x="637" />
<glyph unicode="&#x2005;" horiz-adv-x="478" />
<glyph unicode="&#x2006;" horiz-adv-x="318" />
<glyph unicode="&#x2007;" horiz-adv-x="318" />
<glyph unicode="&#x2008;" horiz-adv-x="239" />
<glyph unicode="&#x2009;" horiz-adv-x="382" />
<glyph unicode="&#x200a;" horiz-adv-x="106" />
<glyph unicode="&#x2010;" horiz-adv-x="606" d="M104 492v178h398v-178h-398z" />
<glyph unicode="&#x2011;" horiz-adv-x="606" d="M104 492v178h398v-178h-398z" />
<glyph unicode="&#x2012;" horiz-adv-x="606" d="M104 492v178h398v-178h-398z" />
<glyph unicode="&#x2013;" horiz-adv-x="1024" d="M0 496v168h1024v-168h-1024z" />
<glyph unicode="&#x2014;" horiz-adv-x="2048" d="M0 496v168h2048v-168h-2048z" />
<glyph unicode="&#x2018;" horiz-adv-x="491" d="M86 1090l168 417h152l-121 -417h-199z" />
<glyph unicode="&#x2019;" horiz-adv-x="491" d="M86 1090l121 417h199l-168 -417h-152z" />
<glyph unicode="&#x201a;" horiz-adv-x="491" d="M86 -158l121 418h199l-168 -418h-152z" />
<glyph unicode="&#x201c;" horiz-adv-x="720" d="M35 1090l170 417h151l-123 -417h-198zM365 1090l170 417h151l-123 -417h-198z" />
<glyph unicode="&#x201d;" horiz-adv-x="720" d="M35 1090l123 417h198l-170 -417h-151zM365 1090l122 417h199l-170 -417h-151z" />
<glyph unicode="&#x201e;" horiz-adv-x="720" d="M35 -158l123 418h198l-170 -418h-151zM365 -158l122 418h199l-170 -418h-151z" />
<glyph unicode="&#x2022;" horiz-adv-x="1024" d="M135 754q0 78 30 146.5t81 119.5t119.5 80.5t146.5 29.5t146.5 -29.5t119.5 -80.5t81 -120t30 -146q0 -78 -30 -146.5t-81 -120t-119.5 -81t-146.5 -29.5t-146.5 29.5t-119.5 81t-81 120t-30 146.5z" />
<glyph unicode="&#x2026;" horiz-adv-x="2048" d="M219 111q0 51 36 86.5t87 35.5t87 -35.5t36 -86.5t-36 -87t-87 -36t-87 36t-36 87zM901 111q0 51 36 86.5t87 35.5t87 -35.5t36 -86.5t-36 -87t-87 -36t-87 36t-36 87zM1583 111q0 51 36 86.5t87 35.5t87 -35.5t36 -86.5t-36 -87t-87 -36t-87 36t-36 87z" />
<glyph unicode="&#x202f;" horiz-adv-x="382" />
<glyph unicode="&#x2039;" horiz-adv-x="493" d="M53 573l189 318h198l-198 -318l198 -305h-198z" />
<glyph unicode="&#x203a;" horiz-adv-x="493" d="M53 268l199 318l-199 305h199l188 -305l-188 -318h-199z" />
<glyph unicode="&#x205f;" horiz-adv-x="478" />
<glyph unicode="&#x2122;" horiz-adv-x="2027" d="M53 1389v118h672v-118h-260v-725h-152v725h-260zM868 664v843h232l241 -620l238 620h231v-843h-151v692h-4l-264 -692h-103l-264 692h-4v-692h-152z" />
<glyph unicode="&#x25fc;" horiz-adv-x="1105" d="M0 0v1106h1106v-1106h-1106z" />
<glyph unicode="&#xfb01;" horiz-adv-x="948" d="M41 924v178h106v164q0 61 8.5 109t31 82t63.5 51.5t108 17.5q57 0 95 -6v-189q-12 6 -37 6q-29 0 -49.5 -19.5t-20.5 -66.5v-149h107v-178h-107v-924h-199v924h-106zM573 1356q0 53 37 90t90 37t91 -37t38 -90t-37.5 -91t-91.5 -38q-53 0 -90 38t-37 91zM602 0v1102h199 v-1102h-199z" />
<glyph unicode="&#xfb02;" horiz-adv-x="948" d="M41 924v178h106v164q0 61 8.5 109t31 82t63.5 51.5t108 17.5q57 0 95 -6v-189q-12 6 -37 6q-29 0 -49.5 -19.5t-20.5 -66.5v-149h107v-178h-107v-924h-199v924h-106zM602 260v1247h199v-1204q0 -66 28.5 -99.5t100.5 -33.5h20v-188h-73q-61 0 -111.5 14t-87.5 47 t-56.5 86t-19.5 131z" />
</font>
</defs>
</svg>
